<svg xmlns="http://www.w3.org/2000/svg" viewBox="0 0 480 480">
    <style>
        .rt-circle{fill:487eb0}
        .rt-icon{fill:#fff}
    </style>
    <circle class="rt-circle" cx="240" cy="240" r="240"/>
    <g id="Layer_2_16_">
        <path class="rt-icon" d="M272.5 372.9c-2.7.7-5.4 1.2-8 1.7-7 1.3-11.7 8.1-10.4 15.1.6 3.5 2.6 6.3 5.3 8.2 2.7 1.9 6.2 2.8 9.8 2.1 3.2-.6 6.4-1.3 9.6-2.1 6.9-1.7 11.2-8.8 9.4-15.7-1.7-6.8-8.7-11.1-15.7-9.3zM368.2 199.4c.9 2.7 2.6 5 4.8 6.5 3.2 2.3 7.5 3.1 11.5 1.7 6.8-2.3 10.5-9.6 8.2-16.4-1-3.1-2.2-6.2-3.4-9.2-2.7-6.6-10.2-9.9-16.8-7.2-6.6 2.7-9.9 10.2-7.2 16.8 1.1 2.6 2.1 5.2 2.9 7.8zM314.6 354.4c-2.3 1.5-4.6 3-7 4.3-6.2 3.6-8.3 11.5-4.7 17.7 1 1.7 2.3 3.1 3.7 4.1 4 2.8 9.4 3.2 13.9.6 2.8-1.6 5.6-3.4 8.3-5.2 6-3.9 7.6-12 3.7-17.9-3.9-5.9-12-7.6-17.9-3.6zM400.9 235.5c-.3-7.1-6.3-12.7-13.4-12.4-7.1.3-12.7 6.3-12.4 13.4.1 2.7.1 5.5.1 8.2-.1 4.5 2.1 8.5 5.5 10.9 2 1.4 4.5 2.3 7.2 2.4 7.1.2 13.1-5.5 13.2-12.7-.1-3.2-.1-6.5-.2-9.8zM366.1 320.3c-5.7-4.3-13.8-3.1-18.1 2.6-1.6 2.2-3.4 4.4-5.1 6.4-4.6 5.4-4 13.6 1.5 18.2.3.3.6.5.9.7 5.4 3.8 12.9 2.9 17.3-2.2 2.1-2.5 4.2-5.1 6.1-7.7 4.3-5.6 3.1-13.7-2.6-18zM385.1 273.6c-6.8-2.1-14.1 1.7-16.2 8.5-.8 2.6-1.7 5.2-2.7 7.8-2.1 5.6-.1 11.9 4.6 15.2.9.6 1.8 1.1 2.9 1.5 6.7 2.5 14.2-.8 16.7-7.5 1.2-3 2.2-6.2 3.2-9.3 2.2-6.8-1.6-14.1-8.5-16.2zM216.1 374.7c-11.6-2.1-22.7-5.6-33.2-10.6-.1-.1-.2-.1-.4-.2-2.5-1.2-5-2.4-7.4-3.7-4.4-2.4-8.7-5.1-12.9-8-60.9-42.9-75.5-127.3-32.6-188.2 9.3-13.2 20.6-24.3 33.2-33 .2-.1.3-.2.5-.3 44.3-30.6 104.5-32.6 151.6-1.2L304.8 144c-2.8 4.1-1.1 7 3.8 6.6l43.9-3.9c4.9-.4 7.9-4.7 6.5-9.5l-11.8-42.5c-1.3-4.8-4.7-5.3-7.5-1.3L329.6 108c-34.6-23.2-76-32-117.1-24.9-4.1.7-8.2 1.6-12.3 2.6h-.1c-.2 0-.3.1-.5.1-35.5 9.1-66.4 29.8-88.5 59.3-.2.2-.4.4-.6.7-.7 1-1.5 2-2.2 3-1.2 1.7-2.3 3.4-3.4 5.1-.1.2-.2.4-.4.6-18.2 28.2-27 60.9-25.5 94.1v.3c.1 3.2.4 6.5.8 9.8 0 .2.1.4.1.6.4 3.3.8 6.5 1.4 9.8 5.8 33.3 21.5 63.3 45 86.6l.2.2.1.1c6.3 6.2 13.2 12 20.6 17.2 19.4 13.7 41 22.7 64.2 26.9 7 1.3 13.8-3.4 15-10.5 1.4-6.9-3.3-13.6-10.3-14.9z"/><path class="st1" d="M232.1 137.2c-5.8 0-10.5 4.7-10.5 10.5V252l95.4 49.3c1.5.8 3.2 1.2 4.8 1.2 3.8 0 7.5-2.1 9.3-5.7 2.7-5.1.6-11.5-4.5-14.1l-84.1-43.5v-91.6c0-5.7-4.7-10.4-10.4-10.4z"/>
    </g>
</svg>
